<svg xmlns="http://www.w3.org/2000/svg" width="360" height="72" viewBox="0 0 360 72" role="img" aria-labelledby="rerender-title rerender-desc">
  <title id="rerender-title">rerender.app</title>
  <desc id="rerender-desc">rerender.app logo with fragmented render cube mark and the subtitle Powered by Reactor.</desc>
  <defs>
    <linearGradient id="wordmarkFill" x1="82" x2="315" y1="12" y2="40" gradientUnits="userSpaceOnUse">
      <stop offset="0" stop-color="#f4ffff"/>
      <stop offset="0.5" stop-color="#b8e6ea"/>
      <stop offset="1" stop-color="#78bdc6"/>
    </linearGradient>
    <filter id="cyanGlow" x="-24%" y="-24%" width="148%" height="148%">
      <feDropShadow dx="0" dy="0" stdDeviation="1.25" flood-color="#6ee7f2" flood-opacity="0.42"/>
    </filter>
    <filter id="limeGlow" x="-40%" y="-40%" width="180%" height="180%">
      <feDropShadow dx="0" dy="0" stdDeviation="1.6" flood-color="#c7f43d" flood-opacity="0.62"/>
    </filter>
    <style>
      .q1{fill:#05222a}.q2{fill:#668085}.q3{fill:#2b454e}.q5{fill:none;stroke:#1baad5;stroke-width:.5;stroke-linecap:round;stroke-linejoin:round;stroke-miterlimit:10}.q6{fill:#c7f43d}.q7{fill:#839994}.q8{fill:#517f99}.q9{fill:#4abadb}.q11{fill:#05222a;stroke:#1baad5;stroke-width:.5;stroke-miterlimit:10}.q12{fill:#1baad5}
    </style>
  </defs>

  <g filter="url(#cyanGlow)" shape-rendering="geometricPrecision" transform="translate(-5 -5) scale(.86)">
    <path class="q1" d="m63.5 14.5h-54.4v62.5h54.4v-62.5z"/>
    <polygon class="q2" points="46.4 20 40.8 17.6 35.4 19.7 40.6 22.3"/>
    <polygon class="q2" points="40 22.7 34.6 20.2 29.2 22.5 34.2 25"/>
    <polygon class="q2" points="33.5 25.4 28.3 23 22.7 25.2 27.8 27.8"/>
    <polygon class="q2" points="26.7 28 21.8 25.6 15.9 27.9 21.2 30.5"/>
    <polygon class="q2" points="39.9 28 34.3 25.7 28.9 28.1 34.1 30.6"/>
    <polygon class="q2" points="46.6 25.2 41.2 23 35.6 25.3 40.6 27.9"/>
    <polygon class="q3" points="21.4 30.6 15.9 27.9 15.9 34.4 21.4 37"/>
    <polygon class="q3" points="27.7 33.4 22.2 30.8 22.2 37.2 27.7 39.8"/>
    <polygon class="q3" points="34 36.2 28.5 33.7 28.5 39.9 34 42.7"/>
    <polygon class="q2" points="39.9 33.9 34.3 31.4 28.6 33.8 34 36.3"/>
    <polygon class="q2" points="46.3 31.2 41.1 28.7 35.1 31 40.5 33.6"/>
    <polygon class="q2" points="33.3 31 27.8 28.5 22.2 30.8 27.5 33.4"/>
    <polygon class="q3" points="21.4 37.7 15.9 35.3 15.9 41.3 21.4 43.9"/>
    <polygon class="q3" points="27.7 40.6 22.3 38 22.2 44.2 27.7 46.8"/>
    <polygon class="q3" points="34 43.3 28.5 40.8 28.5 47 34 49.6"/>
    <polygon class="q3" points="21.4 44.7 15.9 42.2 15.9 48.4 21.4 51"/>
    <polygon class="q3" points="27.7 47.5 22.2 45 22.2 51.3 27.7 53.9"/>
    <polygon class="q3" points="34 50.4 28.5 47.8 28.5 54.2 34 56.7"/>
    <polygon class="q3" points="21.4 51.9 15.9 49.3 15.9 55.4 21.4 58"/>
    <polygon class="q3" points="27.7 54.7 22.2 52.1 22.2 58.3 27.7 60.9"/>
    <polygon class="q3" points="34 57.5 28.5 55 28.5 61.1 34 63.7"/>
    <polygon class="q3" points="21.4 58.8 15.9 56.3 15.9 62.4 21.4 64.9"/>
    <polygon class="q3" points="27.7 61.6 22.3 59.1 22.3 65.3 27.8 67.8"/>
    <polygon class="q3" points="33.9 64.4 28.5 61.9 28.5 68 33.9 70.5"/>
    <polygon class="q1" points="34.7 36.5 34.7 42.9 40.1 45.3 40.1 38.9"/>
    <polygon class="q3" points="34.7 43.8 34.7 50 40.1 52.4 40.1 46.3"/>
    <polygon class="q3" points="34.7 50.8 34.7 57 40.1 59.4 40.1 53.3"/>
    <polygon class="q3" points="34.7 57.8 34.7 63.9 40.1 66.4 40.1 60.2"/>
    <polygon class="q3" points="34.7 64.8 34.7 70.9 40.1 73.4 40.1 67.3"/>
    <polygon class="q2" points="45.6 36.7 40.3 34.4 35.3 36.5 40.3 38.9"/>
    <polygon class="q1" points="40.4 38.9 40.4 44.7 45.8 42.9 45.8 37"/>
    <polyline class="q5" points="35.1 36.6 40.4 38.9 45.8 37"/>
    <polygon class="q1" points="40.4 46.3 40.4 51.8 45.8 49.9 45.8 44.4"/>
    <polyline class="q5" points="40.2 46.3 40.2 51.8 45.8 49.9"/>
    <polygon class="q1" points="40.4 53.5 40.4 58.7 45.6 56.9 45.6 51.4"/>
    <polyline class="q5" points="40.2 53.5 40.2 58.7 45.6 56.9"/>
    <polygon class="q1" points="40.3 60.4 40.3 66 45.6 64.1 45.6 58.6"/>
    <polyline class="q5" points="40.2 60.4 40.2 66 45.6 64.1"/>
    <polygon class="q11" points="40.3 67.4 40.3 73.1 45.6 71.2 45.6 65.7"/>
    <polygon class="q2" points="52.3 34.3 47.1 32 41.7 34 46.7 36.4"/>
    <polygon class="q1" points="47.4 36.6 47.4 42.2 52.2 40.5 52.2 34.7"/>
    <polyline class="q5" points="41.7 34 47.1 36.6 52.4 34.3"/>
    <polygon class="q6" points="53.1 14.4 53.1 20.5 54.4 20.9 54.4 15.3 57.7 13.3"/>
    <polygon class="q1" points="54.7 15.5 54.7 20.5 59 19.4 59 14.2"/>
    <path class="q6" d="m53.9 14.7 3.8-1.4 1.7.7-4.7 1-.8-.3z"/>
    <polygon class="q5" points="53.9 14.7 53.9 20.5 59 19.4 59 14"/>
    <polygon class="q1" points="61.2 10.4 61.2 16.3 62.5 16.7 62.5 11.1 67.5 9.5 65.8 9"/>
    <polygon class="q11" points="62.5 11.1 62.5 16.7 67.2 15.1 67.2 9.9"/>
    <polygon class="q2" points="49.1 31.3 53.9 33.8 59 31.8 53.9 29.2"/>
    <polygon class="q12" points="53.4 33.9 53.4 39.9 54.3 40 54.3 34.1 59.2 32.1 59 31.6"/>
    <polygon class="q1" points="54.3 34.1 54.3 39.5 58.8 37.8 58.8 32.2"/>
    <polygon class="q6" points="59.6 30.9 59.6 36.9 61.1 37.3 61.1 31.7 66.3 29.9 64.4 29.3"/>
    <polygon class="q7" points="61.1 31.7 61.1 37 65.7 35.6 65.7 30.2"/>
    <polygon class="q2" points="42.3 22.7 47.3 25 52.4 22.8 47.5 20.6"/>
    <path class="q6" d="m41.7 22.8 5.6 2.2 5.5-2-.4-.2-5.1 2.2-5.3-2.5-.3.3z"/>
    <polygon class="q2" points="48.7 26.2 52.8 28.3 58.2 26.1 53.9 24.1"/>
    <polygon class="q6" points="48.5 25.8 53.9 28.3 59 26.1 58.4 25.9 53.9 27.8 49 25.5"/>
    <polygon class="q2" points="42.4 28.4 47.3 30.5 52.3 28.6 47.5 26.4"/>
    <polygon class="q3" points="43.1 28.4 47.3 30.2 51.5 28.6 47.5 26.8"/>
    <polygon class="q11" points="54.4 20.9 54.4 23.1 58.3 25.6 58.3 21.9"/>
    <polygon class="q6" points="61.2 19.5 61.2 21.7 63.6 21.5 63.6 19"/>
    <polygon class="q6" points="47.6 72.5 47.6 75.3 50.1 74.7 50.1 72"/>
    <polygon class="q9" points="58 79.1 58 82.2 61.1 81.4 61.1 78.3"/>
    <polygon class="q8" points="58.6 79.4 58.6 81.3 60.6 80.8 60.6 78.8"/>
    <polygon class="q6" points="68.8 71.1 68.8 73.3 70.9 73.1 70.9 70.7"/>
    <polygon class="q6" points="85.2 19.7 85.2 21.7 87.1 21.6 87.1 19.4"/>
    <polygon class="q6" points="76.8 43.1 76.8 48.6 78.3 49 78.3 44.1 83.1 42.5 81.6 42.1"/>
    <polygon class="q1" points="78.3 44.3 78.3 48.9 82.6 47.8 82.6 42.9"/>
    <polygon class="q2" points="54.4 41.2 54.4 46.5 59 45.3 59 39.7"/>
    <polygon class="q6" points="53 40.4 53 46.1 54.4 46.6 54.4 41.2 59.6 39.5 57.9 38.8"/>
    <polygon class="q6" points="61 64.1 61 67.1 65.6 65"/>
  </g>

  <g>
    <text x="82" y="32.5" fill="url(#wordmarkFill)" font-family="SFMono-Regular, Roboto Mono, Cascadia Code, Menlo, ui-monospace, monospace" font-size="31" font-weight="900" letter-spacing="1.2" paint-order="stroke fill" stroke="#061516" stroke-width="1">rerender.app</text>
    <text x="84" y="52.5" fill="#c7f43d" font-family="SFMono-Regular, Roboto Mono, Cascadia Code, Menlo, ui-monospace, monospace" font-size="12.4" font-weight="800" letter-spacing=".55" filter="url(#limeGlow)">Powered by Reactor</text>
  </g>
</svg>
